# xmcd
#
# Track frame offsets:
#	183
#	17285
#	35268
#	49138
#	67285
#	81590
#	95008
#	113640
#	126165
#	141993
#
# Disc length: 2067 seconds
#
# Revision: 1
# Processed by: cddbd v1.4PL0 Copyright (c) Steve Scherf et al.
# Submitted via: audiograbber 1.80.04
#
DISCID=8b08110a
DTITLE=Pal Rakes - Midnight Rain
DYEAR=1900
DGENRE=
TTITLE0=I'm Only Lonely For You
TTITLE1=When Lonely Goes Crazy
TTITLE2=We Did It Once (We Can Do It Again)
TTITLE3=Midnight Rain
TTITLE4=I Feel A Change Comin' On
TTITLE5=Poor Boy
TTITLE6=Foolish Lips
TTITLE7=All You're Takin' Is My Love
TTITLE8=Green Kentucky Eyes
TTITLE9=One More Time
EXTD=
EXTT0=
EXTT1=
EXTT2=
EXTT3=
EXTT4=
EXTT5=
EXTT6=
EXTT7=
EXTT8=
EXTT9=
PLAYORDER=
